# xmcd
#
# Track frame offsets: 
#        182
#        16350
#        33717
#        52120
#        70700
#        94315
#        110975
#        127497
#        144880
#        162590
#
# Disc length: 2379 seconds
#
# Revision: 4
# Processed by: cddbd v1.5.2PL0 Copyright (c) Steve Scherf et al.
# Submitted via: ExactAudioCopy v0.95b3
#
DISCID=9b09490a
DTITLE=Various Artist - Billboard Top Hits - 1980
DYEAR=1992
DGENRE=Pop
TTITLE0=Blondie - Call Me
TTITLE1=Irene Cara - Fame
TTITLE2=Spinners - Working My Way Back To You-Forgive Me Girl
TTITLE3=Lipps Inc. - Funkytown
TTITLE4=Elton John - Little Jeannie
TTITLE5=Diana Ross - Upside Down
TTITLE6=Pointer Sisters - He's So Shy
TTITLE7=KC and The Sunshine Band - Please Don't Go
TTITLE8=Captain and Tennille - Do That To Me One More Time
TTITLE9=SOS Band - Take Your Time (Do It Right)
EXTD=
EXTT0=
EXTT1=
EXTT2=
EXTT3=
EXTT4=
EXTT5=
EXTT6=
EXTT7=
EXTT8=
EXTT9=
PLAYORDER=
